<svg width="320" height="206" viewBox="0 0 320 206" fill="none" xmlns="http://www.w3.org/2000/svg">
<path d="M320 128.19V206H115.876C111.408 198.301 108.85 189.356 108.85 179.814C108.85 164.6 115.352 150.904 125.73 141.355C135.035 132.793 147.456 127.565 161.099 127.565H167.882C185.234 127.565 198.305 111.899 202.671 104.066C208.548 81.6434 228.95 65.1016 253.216 65.1016C282.072 65.1016 305.465 88.4943 305.465 117.351C305.465 121.037 305.083 124.634 304.357 128.104C306.818 127.748 309.334 127.565 311.893 127.565C314.651 127.565 317.358 127.778 320 128.19Z" fill="white" fill-opacity="0.12"/>
</svg>
