<svg width="135" height="34" viewBox="0 0 135 34" fill="none" xmlns="http://www.w3.org/2000/svg">
<path d="M59.7 16.2158C60.3364 16.2158 60.8891 16.2828 61.358 16.4168C61.8381 16.5507 62.2065 16.7406 62.4633 16.9862C62.7313 17.2206 62.8653 17.5054 62.8653 17.8403C62.8653 18.0636 62.7983 18.2757 62.6643 18.4767C62.5303 18.6665 62.3349 18.7614 62.0781 18.7614C61.8995 18.7614 61.7488 18.7391 61.626 18.6944C61.5143 18.6386 61.4138 18.5716 61.3245 18.4935C61.2352 18.4153 61.1291 18.3427 61.0063 18.2757C60.8947 18.2088 60.7216 18.1585 60.4871 18.125C60.2638 18.0804 60.0964 18.058 59.9847 18.058C59.4153 18.058 58.9296 18.1808 58.5277 18.4265C58.1369 18.6721 57.8354 19.007 57.6233 19.4313C57.4112 19.8444 57.3051 20.3245 57.3051 20.8716C57.3051 21.4075 57.4112 21.8876 57.6233 22.3119C57.8466 22.725 58.1481 23.0544 58.5277 23.3C58.9185 23.5456 59.3651 23.6684 59.8675 23.6684C60.1466 23.6684 60.3867 23.6517 60.5876 23.6182C60.7886 23.5847 60.9561 23.5345 61.09 23.4675C61.2464 23.3781 61.3859 23.2832 61.5087 23.1828C61.6315 23.0823 61.8158 23.032 62.0614 23.032C62.3517 23.032 62.575 23.1269 62.7313 23.3167C62.8876 23.4954 62.9658 23.7187 62.9658 23.9866C62.9658 24.2658 62.8095 24.5226 62.4968 24.757C62.1842 24.9803 61.7711 25.1645 61.2575 25.3097C60.7551 25.4437 60.208 25.5107 59.6163 25.5107C58.7342 25.5107 57.9694 25.3097 57.3219 24.9078C56.6743 24.4946 56.1719 23.9364 55.8146 23.233C55.4685 22.5296 55.2954 21.7425 55.2954 20.8716C55.2954 19.9561 55.4796 19.1522 55.8481 18.46C56.2277 17.7566 56.7469 17.2095 57.4056 16.8187C58.0755 16.4168 58.8403 16.2158 59.7 16.2158Z" fill="#0F4264"/>
<path d="M66.5921 24.3216C66.5921 24.6119 66.4916 24.8575 66.2907 25.0585C66.1009 25.2483 65.8608 25.3432 65.5705 25.3432C65.2914 25.3432 65.0569 25.2483 64.8671 25.0585C64.6773 24.8575 64.5824 24.6119 64.5824 24.3216V13.9716C64.5824 13.6813 64.6773 13.4413 64.8671 13.2515C65.0681 13.0505 65.3137 12.95 65.604 12.95C65.8943 12.95 66.1288 13.0505 66.3074 13.2515C66.4972 13.4413 66.5921 13.6813 66.5921 13.9716V24.3216Z" fill="#0F4264"/>
<path d="M77.4573 20.8716C77.4573 21.7871 77.2508 22.5966 76.8377 23.3C76.4357 23.9922 75.8886 24.5337 75.1964 24.9245C74.5153 25.3153 73.7505 25.5107 72.902 25.5107C72.0535 25.5107 71.2831 25.3153 70.5908 24.9245C69.9098 24.5337 69.3627 23.9922 68.9496 23.3C68.5477 22.5966 68.3467 21.7871 68.3467 20.8716C68.3467 19.9561 68.5477 19.1522 68.9496 18.46C69.3627 17.7566 69.9098 17.2095 70.5908 16.8187C71.2831 16.4168 72.0535 16.2158 72.902 16.2158C73.7505 16.2158 74.5153 16.4168 75.1964 16.8187C75.8886 17.2095 76.4357 17.7566 76.8377 18.46C77.2508 19.1522 77.4573 19.9561 77.4573 20.8716ZM75.4476 20.8716C75.4476 20.3022 75.3304 19.8109 75.0959 19.3978C74.8726 18.9736 74.5656 18.6442 74.1748 18.4097C73.7952 18.1753 73.3709 18.058 72.902 18.058C72.4331 18.058 72.0032 18.1753 71.6124 18.4097C71.2328 18.6442 70.9258 18.9736 70.6913 19.3978C70.468 19.8109 70.3564 20.3022 70.3564 20.8716C70.3564 21.4299 70.468 21.9211 70.6913 22.3454C70.9258 22.7585 71.2328 23.0823 71.6124 23.3167C72.0032 23.5512 72.4331 23.6684 72.902 23.6684C73.3709 23.6684 73.7952 23.5512 74.1748 23.3167C74.5656 23.0823 74.8726 22.7585 75.0959 22.3454C75.3304 21.9211 75.4476 21.4299 75.4476 20.8716Z" fill="#0F4264"/>
<path d="M85.865 16.3833C86.1552 16.3833 86.3953 16.4838 86.5851 16.6847C86.7749 16.8745 86.8698 17.1146 86.8698 17.4049V21.6587C86.8698 22.8422 86.5404 23.7801 85.8817 24.4723C85.223 25.1645 84.2739 25.5107 83.0346 25.5107C81.7953 25.5107 80.8463 25.1645 80.1876 24.4723C79.54 23.7801 79.2162 22.8422 79.2162 21.6587V17.4049C79.2162 17.1146 79.3111 16.8745 79.5009 16.6847C79.6907 16.4838 79.9308 16.3833 80.2211 16.3833C80.5113 16.3833 80.7514 16.4838 80.9412 16.6847C81.131 16.8745 81.2259 17.1146 81.2259 17.4049V21.6587C81.2259 22.3398 81.3766 22.8478 81.6781 23.1828C81.9795 23.5065 82.4317 23.6684 83.0346 23.6684C83.6487 23.6684 84.1065 23.5065 84.4079 23.1828C84.7094 22.8478 84.8601 22.3398 84.8601 21.6587V17.4049C84.8601 17.1146 84.955 16.8745 85.1448 16.6847C85.3346 16.4838 85.5747 16.3833 85.865 16.3833Z" fill="#0F4264"/>
<path d="M96.381 12.95C96.6712 12.95 96.9113 13.0449 97.1011 13.2347C97.2909 13.4245 97.3858 13.6702 97.3858 13.9716V24.3216C97.3858 24.6119 97.2909 24.8575 97.1011 25.0585C96.9113 25.2483 96.6712 25.3432 96.381 25.3432C96.0907 25.3432 95.8506 25.2483 95.6608 25.0585C95.471 24.8575 95.3761 24.6119 95.3761 24.3216V23.501L95.7445 23.6517C95.7445 23.7968 95.6664 23.9755 95.5101 24.1876C95.3538 24.3886 95.1416 24.5895 94.8737 24.7905C94.6057 24.9915 94.2875 25.1645 93.9191 25.3097C93.5618 25.4437 93.171 25.5107 92.7467 25.5107C91.9764 25.5107 91.2785 25.3153 90.6533 24.9245C90.0281 24.5226 89.5312 23.9755 89.1628 23.2832C88.8055 22.5798 88.6269 21.776 88.6269 20.8716C88.6269 19.9561 88.8055 19.1522 89.1628 18.46C89.5312 17.7566 90.0225 17.2095 90.6366 16.8187C91.2506 16.4168 91.9317 16.2158 92.6798 16.2158C93.1599 16.2158 93.6009 16.2884 94.0028 16.4335C94.4048 16.5787 94.7509 16.7629 95.0412 16.9862C95.3426 17.2095 95.5715 17.4384 95.7278 17.6728C95.8953 17.8961 95.979 18.0859 95.979 18.2422L95.3761 18.46V13.9716C95.3761 13.6813 95.471 13.4413 95.6608 13.2515C95.8506 13.0505 96.0907 12.95 96.381 12.95ZM92.998 23.6684C93.4892 23.6684 93.9191 23.5456 94.2875 23.3C94.656 23.0544 94.9407 22.7194 95.1416 22.2951C95.3538 21.8709 95.4598 21.3964 95.4598 20.8716C95.4598 20.3357 95.3538 19.8556 95.1416 19.4313C94.9407 19.007 94.656 18.6721 94.2875 18.4265C93.9191 18.1808 93.4892 18.058 92.998 18.058C92.5179 18.058 92.0936 18.1808 91.7252 18.4265C91.3567 18.6721 91.0664 19.007 90.8543 19.4313C90.6533 19.8556 90.5528 20.3357 90.5528 20.8716C90.5528 21.3964 90.6533 21.8709 90.8543 22.2951C91.0664 22.7194 91.3567 23.0544 91.7252 23.3C92.0936 23.5456 92.5179 23.6684 92.998 23.6684Z" fill="#0F4264"/>
<path d="M103.548 16.2158C104.184 16.2158 104.737 16.2828 105.206 16.4168C105.686 16.5507 106.054 16.7406 106.311 16.9862C106.579 17.2206 106.713 17.5054 106.713 17.8403C106.713 18.0636 106.646 18.2757 106.512 18.4767C106.378 18.6665 106.183 18.7614 105.926 18.7614C105.747 18.7614 105.596 18.7391 105.474 18.6944C105.362 18.6386 105.262 18.5716 105.172 18.4935C105.083 18.4153 104.977 18.3427 104.854 18.2757C104.742 18.2088 104.569 18.1585 104.335 18.125C104.112 18.0804 103.944 18.058 103.832 18.058C103.263 18.058 102.777 18.1808 102.375 18.4265C101.985 18.6721 101.683 19.007 101.471 19.4313C101.259 19.8444 101.153 20.3245 101.153 20.8716C101.153 21.4075 101.259 21.8876 101.471 22.3119C101.694 22.725 101.996 23.0544 102.375 23.3C102.766 23.5456 103.213 23.6684 103.715 23.6684C103.994 23.6684 104.234 23.6517 104.435 23.6182C104.636 23.5847 104.804 23.5345 104.938 23.4675C105.094 23.3781 105.234 23.2832 105.356 23.1828C105.479 23.0823 105.663 23.032 105.909 23.032C106.199 23.032 106.423 23.1269 106.579 23.3167C106.735 23.4954 106.813 23.7187 106.813 23.9866C106.813 24.2658 106.657 24.5226 106.345 24.757C106.032 24.9803 105.619 25.1645 105.105 25.3097C104.603 25.4437 104.056 25.5107 103.464 25.5107C102.582 25.5107 101.817 25.3097 101.17 24.9078C100.522 24.4946 100.02 23.9364 99.6623 23.233C99.3162 22.5296 99.1431 21.7425 99.1431 20.8716C99.1431 19.9561 99.3273 19.1522 99.6958 18.46C100.075 17.7566 100.595 17.2095 101.253 16.8187C101.923 16.4168 102.688 16.2158 103.548 16.2158Z" fill="#0F4264"/>
<path d="M115.598 16.2158C115.888 16.2158 116.128 16.3107 116.318 16.5005C116.508 16.6903 116.603 16.9359 116.603 17.2374V24.3216C116.603 24.6119 116.508 24.8575 116.318 25.0585C116.128 25.2483 115.888 25.3432 115.598 25.3432C115.308 25.3432 115.068 25.2483 114.878 25.0585C114.688 24.8575 114.593 24.6119 114.593 24.3216V23.501L114.962 23.6517C114.962 23.7968 114.883 23.9755 114.727 24.1876C114.571 24.3886 114.359 24.5895 114.091 24.7905C113.823 24.9915 113.505 25.1645 113.136 25.3097C112.779 25.4437 112.388 25.5107 111.964 25.5107C111.193 25.5107 110.496 25.3153 109.87 24.9245C109.245 24.5226 108.748 23.9755 108.38 23.2832C108.023 22.5798 107.844 21.776 107.844 20.8716C107.844 19.9561 108.023 19.1522 108.38 18.46C108.748 17.7566 109.24 17.2095 109.854 16.8187C110.468 16.4168 111.149 16.2158 111.897 16.2158C112.377 16.2158 112.818 16.2884 113.22 16.4335C113.622 16.5787 113.968 16.7629 114.258 16.9862C114.56 17.2095 114.789 17.4384 114.945 17.6728C115.112 17.8961 115.196 18.0859 115.196 18.2422L114.593 18.46V17.2374C114.593 16.9471 114.688 16.7071 114.878 16.5173C115.068 16.3163 115.308 16.2158 115.598 16.2158ZM112.215 23.6684C112.706 23.6684 113.136 23.5456 113.505 23.3C113.873 23.0544 114.158 22.7194 114.359 22.2951C114.571 21.8709 114.677 21.3964 114.677 20.8716C114.677 20.3357 114.571 19.8556 114.359 19.4313C114.158 19.007 113.873 18.6721 113.505 18.4265C113.136 18.1808 112.706 18.058 112.215 18.058C111.735 18.058 111.311 18.1808 110.942 18.4265C110.574 18.6721 110.284 19.007 110.071 19.4313C109.87 19.8556 109.77 20.3357 109.77 20.8716C109.77 21.3964 109.87 21.8709 110.071 22.2951C110.284 22.7194 110.574 23.0544 110.942 23.3C111.311 23.5456 111.735 23.6684 112.215 23.6684Z" fill="#0F4264"/>
<path d="M118.26 23.9531C118.148 23.7968 118.098 23.5959 118.109 23.3502C118.12 23.1046 118.265 22.8925 118.544 22.7138C118.723 22.6022 118.913 22.5575 119.114 22.5798C119.315 22.591 119.51 22.6915 119.7 22.8813C120.024 23.2051 120.364 23.4563 120.722 23.6349C121.079 23.8136 121.525 23.9029 122.061 23.9029C122.229 23.8917 122.413 23.8694 122.614 23.8359C122.815 23.7913 122.988 23.7019 123.133 23.5679C123.29 23.4228 123.368 23.2051 123.368 22.9148C123.368 22.6692 123.284 22.4738 123.117 22.3286C122.949 22.1835 122.726 22.0607 122.447 21.9602C122.179 21.8597 121.877 21.7648 121.542 21.6755C121.196 21.575 120.839 21.4633 120.47 21.3405C120.113 21.2177 119.784 21.0614 119.482 20.8716C119.181 20.6706 118.935 20.4083 118.745 20.0845C118.556 19.7607 118.461 19.3532 118.461 18.8619C118.461 18.3037 118.617 17.8291 118.93 17.4384C119.242 17.0476 119.644 16.7461 120.135 16.534C120.638 16.3219 121.163 16.2158 121.71 16.2158C122.056 16.2158 122.419 16.2605 122.798 16.3498C123.178 16.4279 123.541 16.5619 123.887 16.7517C124.233 16.9304 124.523 17.1704 124.758 17.4719C124.881 17.6393 124.953 17.8403 124.975 18.0748C124.998 18.3092 124.892 18.5214 124.657 18.7112C124.49 18.8452 124.294 18.9066 124.071 18.8954C123.848 18.8731 123.664 18.7949 123.518 18.6609C123.329 18.4153 123.072 18.2199 122.748 18.0748C122.435 17.9296 122.073 17.8571 121.659 17.8571C121.492 17.8571 121.308 17.8794 121.107 17.924C120.917 17.9575 120.75 18.0413 120.604 18.1753C120.459 18.2981 120.387 18.499 120.387 18.7782C120.387 19.035 120.47 19.2415 120.638 19.3978C120.805 19.543 121.029 19.6658 121.308 19.7663C121.598 19.8556 121.905 19.9449 122.229 20.0342C122.564 20.1235 122.904 20.2296 123.25 20.3524C123.597 20.4752 123.915 20.6371 124.205 20.8381C124.495 21.0391 124.73 21.3015 124.908 21.6252C125.087 21.9379 125.176 22.3398 125.176 22.8311C125.176 23.4005 125.009 23.8862 124.674 24.2881C124.339 24.69 123.92 24.9971 123.418 25.2092C122.916 25.4102 122.402 25.5107 121.877 25.5107C121.218 25.5107 120.56 25.399 119.901 25.1757C119.242 24.9412 118.695 24.5337 118.26 23.9531Z" fill="#0F4264"/>
<path d="M131.564 16.2158C132.368 16.2158 132.977 16.3889 133.39 16.735C133.814 17.0811 134.104 17.5444 134.261 18.125C134.417 18.6944 134.495 19.3308 134.495 20.0342V24.3216C134.495 24.6119 134.4 24.8575 134.21 25.0585C134.021 25.2483 133.781 25.3432 133.49 25.3432C133.2 25.3432 132.96 25.2483 132.77 25.0585C132.58 24.8575 132.485 24.6119 132.485 24.3216V20.0342C132.485 19.6658 132.441 19.3364 132.351 19.0461C132.262 18.7447 132.1 18.5046 131.866 18.326C131.631 18.1473 131.296 18.058 130.861 18.058C130.437 18.058 130.074 18.1473 129.772 18.326C129.471 18.5046 129.242 18.7447 129.086 19.0461C128.941 19.3364 128.868 19.6658 128.868 20.0342V24.3216C128.868 24.6119 128.773 24.8575 128.583 25.0585C128.393 25.2483 128.153 25.3432 127.863 25.3432C127.573 25.3432 127.333 25.2483 127.143 25.0585C126.953 24.8575 126.858 24.6119 126.858 24.3216V13.9716C126.858 13.6813 126.953 13.4413 127.143 13.2515C127.333 13.0505 127.573 12.95 127.863 12.95C128.153 12.95 128.393 13.0505 128.583 13.2515C128.773 13.4413 128.868 13.6813 128.868 13.9716V18.125L128.617 18.0748C128.717 17.885 128.857 17.684 129.035 17.4719C129.214 17.2486 129.432 17.042 129.689 16.8522C129.945 16.6624 130.23 16.5117 130.543 16.4C130.855 16.2772 131.196 16.2158 131.564 16.2158Z" fill="#0F4264"/>
<path d="M0 24.274C0 29.1808 3.97768 33.1584 8.8844 33.1584H34.5254C39.4321 33.1584 43.4098 29.1808 43.4098 24.274C43.4098 19.3673 39.4321 15.3896 34.5254 15.3896C34.0903 15.3896 33.6624 15.4209 33.244 15.4814C33.3675 14.8913 33.4324 14.2797 33.4324 13.6529C33.4324 8.74616 29.4547 4.76848 24.548 4.76848C20.4218 4.76848 16.9527 7.58124 15.9533 11.3939C15.2109 12.7258 12.9884 15.3896 10.0379 15.3896H8.8844C6.56468 15.3896 4.4526 16.2787 2.87031 17.7346C1.1057 19.3583 0 21.687 0 24.274Z" fill="#197BBD"/>
<circle cx="34.6672" cy="10.9484" r="8.01481" transform="rotate(-30 34.6672 10.9484)" fill="#FFC145"/>
<path d="M37.9027 11.1382C38.1887 11.6336 38.2629 12.1484 38.1252 12.6826C37.9875 13.2168 37.6915 13.6922 37.2372 14.1089L37.5827 14.7073C37.6793 14.8746 37.7012 15.0463 37.6486 15.2226C37.606 15.4015 37.5011 15.5393 37.3339 15.6359C37.173 15.7288 37.0045 15.7489 36.8282 15.6962C36.6557 15.65 36.5211 15.5432 36.4245 15.3759L36.1125 14.8355C35.7465 15.0039 35.3853 15.1138 35.0289 15.1651C34.6789 15.2128 34.3019 15.1988 33.898 15.1232C33.6351 15.069 33.4498 14.9487 33.3421 14.7621C33.2566 14.6141 33.237 14.4539 33.2833 14.2813C33.3258 14.1024 33.4242 13.9683 33.5787 13.8792C33.7009 13.8086 33.8326 13.784 33.9737 13.8055C34.266 13.8512 34.5301 13.8703 34.766 13.8628C34.9981 13.8489 35.2297 13.7967 35.4606 13.7063L34.374 11.8243C32.9433 12.3329 31.9233 12.0596 31.3141 11.0044C31.0058 10.4704 30.9333 9.92883 31.0968 9.3798C31.2565 8.82433 31.6004 8.34268 32.1284 7.93486L31.9445 7.61637C31.848 7.44908 31.8228 7.27918 31.869 7.10664C31.918 6.92396 32.0261 6.78433 32.1934 6.68775C32.3542 6.59488 32.5228 6.57478 32.699 6.62744C32.8716 6.67367 33.0061 6.78043 33.1027 6.94772L33.3089 7.30481C33.9115 7.08557 34.477 7.025 35.0055 7.12309C35.2775 7.16335 35.4693 7.27999 35.5807 7.47301C35.6661 7.621 35.6876 7.78447 35.6451 7.96344C35.5989 8.13597 35.5018 8.26495 35.3538 8.35039C35.2573 8.40611 35.1537 8.42731 35.043 8.41398C34.7571 8.36457 34.4038 8.38411 33.9831 8.47261L35.0139 10.2581C35.7235 10.0457 36.3034 10.0026 36.7537 10.1287C37.2002 10.2483 37.5832 10.5848 37.9027 11.1382ZM32.4251 10.2986C32.5477 10.511 32.7155 10.6457 32.9287 10.7028C33.1381 10.7535 33.397 10.7412 33.7053 10.6662L32.7804 9.06405C32.5463 9.26783 32.4007 9.47628 32.3436 9.68941C32.2865 9.90253 32.3136 10.1056 32.4251 10.2986ZM36.5686 12.9508C36.7106 12.7658 36.8042 12.5788 36.8494 12.3897C36.8909 12.1941 36.869 12.0224 36.7835 11.8744C36.6795 11.6942 36.5389 11.5695 36.3617 11.5003C36.1807 11.4246 35.9581 11.403 35.6937 11.4355L36.5686 12.9508Z" fill="#404040"/>
</svg>
