<svg width="36" height="36" viewBox="0 0 36 36" fill="none" xmlns="http://www.w3.org/2000/svg">
<path d="M29.1346 23.5375L24.075 18.4692V14.7114C24.0757 14.5972 24.0538 14.4839 24.0106 14.3782C23.9674 14.2725 23.9038 14.1763 23.8233 14.0952L15.1448 5.41662C15.0641 5.33528 14.9681 5.27072 14.8623 5.22666C14.7566 5.1826 14.6431 5.15991 14.5286 5.15991C14.414 5.15991 14.3006 5.1826 14.1948 5.22666C14.0891 5.27072 13.9931 5.33528 13.9124 5.41662L6.10168 13.2273C6.02034 13.308 5.95577 13.404 5.91171 13.5098C5.86765 13.6155 5.84497 13.7289 5.84497 13.8435C5.84497 13.9581 5.86765 14.0715 5.91171 14.1773C5.95577 14.283 6.02034 14.379 6.10168 14.4597L14.7803 23.1383C14.8613 23.2187 14.9575 23.2823 15.0633 23.3255C15.169 23.3687 15.2822 23.3906 15.3964 23.3899H19.1629L24.2225 28.4582C24.8739 29.1096 25.7574 29.4756 26.6786 29.4756C27.5998 29.4756 28.4832 29.1096 29.1346 28.4582C29.786 27.8068 30.1519 26.9234 30.1519 26.0022C30.1519 25.081 29.786 24.1975 29.1346 23.5462V23.5375ZM9.32143 12.4636L11.3088 14.4597L12.5412 13.2273L10.5451 11.2399L11.925 9.86005L15.6481 13.5918L16.8805 12.3595L13.1487 8.63637L14.5286 7.25648L20.2478 12.9757L13.6607 19.5627L7.94154 13.8435L9.32143 12.4636ZM27.9023 27.2172C27.577 27.5405 27.1371 27.7219 26.6786 27.7219C26.22 27.7219 25.7801 27.5405 25.4549 27.2172L20.1349 21.9059C19.95 21.7787 19.7398 21.6929 19.5188 21.6542H15.7523L14.8844 20.7864L21.4714 14.1993L22.3393 15.0672V18.8337C22.3402 19.0614 22.4306 19.2795 22.591 19.4412L27.9023 24.7698C28.2255 25.095 28.407 25.535 28.407 25.9935C28.407 26.4521 28.2255 26.892 27.9023 27.2172Z" fill="url(#paint0_linear_1004_268)"/>
<path d="M27.9023 27.2172C27.577 27.5405 27.1371 27.7219 26.6786 27.7219C26.22 27.7219 25.7801 27.5405 25.4549 27.2172L20.1349 21.9059C19.95 21.7787 19.7398 21.6929 19.5188 21.6542H15.7523L14.8844 20.7864L21.4714 14.1993L22.3393 15.0672V18.8337C22.3402 19.0614 22.4306 19.2795 22.591 19.4412L27.9023 24.7698C28.2255 25.095 28.407 25.535 28.407 25.9935C28.407 26.4521 28.2255 26.892 27.9023 27.2172Z" fill="url(#paint1_linear_1004_268)"/>
<defs>
<linearGradient id="paint0_linear_1004_268" x1="17.9985" y1="5.15991" x2="17.9985" y2="29.4756" gradientUnits="userSpaceOnUse">
<stop stop-color="#FFA764"/>
<stop offset="1" stop-color="#F17F29"/>
</linearGradient>
<linearGradient id="paint1_linear_1004_268" x1="17.9985" y1="5.15991" x2="17.9985" y2="29.4756" gradientUnits="userSpaceOnUse">
<stop stop-color="#FFA764"/>
<stop offset="1" stop-color="#F17F29"/>
</linearGradient>
</defs>
</svg>
