<svg width="37" height="36" viewBox="0 0 37 36" fill="none" xmlns="http://www.w3.org/2000/svg">
<path d="M32.8694 17.3118C31.4974 11.1091 29.4327 7.79849 26.3698 6.89418C25.7259 6.70533 25.0581 6.61098 24.3872 6.61409C23.5003 6.61409 22.728 6.83014 21.911 7.05913C20.9265 7.33534 19.808 7.64906 18.1773 7.64906C16.5466 7.64906 15.4275 7.33598 14.441 7.05977C13.6234 6.83014 12.8517 6.61409 11.9675 6.61409C11.2737 6.61168 10.5829 6.70573 9.91497 6.89353C6.86826 7.79396 4.80478 11.1033 3.41274 17.308C1.91591 23.9848 2.65268 28.2004 5.47881 29.1785C5.8662 29.315 6.2738 29.3854 6.68456 29.3868C8.62061 29.3868 10.1731 27.7741 11.2339 26.4539C12.4325 24.9597 13.8356 24.2015 18.1773 24.2015C22.0552 24.2015 23.6601 24.7274 25.0463 26.4539C25.9176 27.5393 26.7411 28.2988 27.5626 28.7768C28.6551 29.412 29.747 29.553 30.8072 29.1888C32.4774 28.6189 33.4348 27.1124 33.6534 24.71C33.8197 22.8677 33.5635 20.4478 32.8694 17.3118ZM15.0724 16.9638H13.0024V19.0338C13.0024 19.3083 12.8934 19.5715 12.6993 19.7656C12.5052 19.9597 12.2419 20.0688 11.9675 20.0688C11.693 20.0688 11.4297 19.9597 11.2356 19.7656C11.0415 19.5715 10.9325 19.3083 10.9325 19.0338V16.9638H8.86253C8.58804 16.9638 8.32479 16.8548 8.13069 16.6607C7.9366 16.4666 7.82756 16.2034 7.82756 15.9289C7.82756 15.6544 7.9366 15.3911 8.13069 15.197C8.32479 15.0029 8.58804 14.8939 8.86253 14.8939H10.9325V12.8239C10.9325 12.5494 11.0415 12.2862 11.2356 12.0921C11.4297 11.898 11.693 11.789 11.9675 11.789C12.2419 11.789 12.5052 11.898 12.6993 12.0921C12.8934 12.2862 13.0024 12.5494 13.0024 12.8239V14.8939H15.0724C15.3469 14.8939 15.6101 15.0029 15.8042 15.197C15.9983 15.3911 16.1074 15.6544 16.1074 15.9289C16.1074 16.2034 15.9983 16.4666 15.8042 16.6607C15.6101 16.8548 15.3469 16.9638 15.0724 16.9638ZM20.506 17.2226C20.2501 17.2226 20 17.1467 19.7872 17.0045C19.5745 16.8624 19.4087 16.6603 19.3108 16.4239C19.2128 16.1875 19.1872 15.9274 19.2371 15.6765C19.2871 15.4255 19.4103 15.195 19.5912 15.0141C19.7721 14.8331 20.0026 14.7099 20.2536 14.66C20.5046 14.6101 20.7647 14.6357 21.0011 14.7336C21.2375 14.8315 21.4395 14.9974 21.5817 15.2101C21.7238 15.4229 21.7997 15.673 21.7997 15.9289C21.7997 16.272 21.6634 16.601 21.4208 16.8437C21.1782 17.0863 20.8491 17.2226 20.506 17.2226V17.2226ZM23.3522 20.0688C23.0962 20.0688 22.8459 19.9928 22.6331 19.8505C22.4203 19.7082 22.2545 19.506 22.1566 19.2694C22.0588 19.0328 22.0334 18.7725 22.0836 18.5215C22.1337 18.2704 22.2573 18.0399 22.4385 17.8591C22.6198 17.6783 22.8506 17.5553 23.1018 17.5058C23.3529 17.4562 23.6132 17.4823 23.8495 17.5807C24.0858 17.6791 24.2877 17.8455 24.4294 18.0586C24.5712 18.2718 24.6465 18.5223 24.6459 18.7783C24.645 19.1208 24.5084 19.4491 24.2658 19.691C24.0233 19.9329 23.6947 20.0688 23.3522 20.0688V20.0688ZM23.3522 14.3764C23.0963 14.3764 22.8462 14.3005 22.6334 14.1584C22.4207 14.0162 22.2549 13.8142 22.1569 13.5778C22.059 13.3414 22.0334 13.0812 22.0833 12.8303C22.1332 12.5793 22.2565 12.3488 22.4374 12.1679C22.6183 11.987 22.8488 11.8637 23.0998 11.8138C23.3507 11.7639 23.6109 11.7895 23.8473 11.8874C24.0837 11.9854 24.2857 12.1512 24.4279 12.3639C24.57 12.5767 24.6459 12.8268 24.6459 13.0827C24.6459 13.4258 24.5096 13.7549 24.267 13.9975C24.0244 14.2401 23.6953 14.3764 23.3522 14.3764ZM26.1984 17.2226C25.9425 17.2226 25.6924 17.1467 25.4796 17.0045C25.2669 16.8624 25.101 16.6603 25.0031 16.4239C24.9052 16.1875 24.8796 15.9274 24.9295 15.6765C24.9794 15.4255 25.1026 15.195 25.2836 15.0141C25.4645 14.8331 25.695 14.7099 25.946 14.66C26.1969 14.6101 26.457 14.6357 26.6934 14.7336C26.9298 14.8315 27.1319 14.9974 27.274 15.2101C27.4162 15.4229 27.4921 15.673 27.4921 15.9289C27.4921 16.272 27.3558 16.601 27.1132 16.8437C26.8705 17.0863 26.5415 17.2226 26.1984 17.2226V17.2226Z" fill="url(#paint0_linear_1004_266)"/>
<defs>
<linearGradient id="paint0_linear_1004_266" x1="18.1786" y1="6.61401" x2="18.1786" y2="29.3868" gradientUnits="userSpaceOnUse">
<stop stop-color="#22B04A"/>
<stop offset="1" stop-color="#1E9540"/>
</linearGradient>
</defs>
</svg>
