<svg width="157" height="183" viewBox="0 0 157 183" fill="none" xmlns="http://www.w3.org/2000/svg">
<g clip-path="url(#clip0_1070_216)">
<mask id="mask0_1070_216" style="mask-type:alpha" maskUnits="userSpaceOnUse" x="-1" y="0" width="159" height="184">
<rect x="-0.463135" y="0.37207" width="157.933" height="183.032" rx="19.0044" fill="url(#paint0_linear_1070_216)"/>
</mask>
<g mask="url(#mask0_1070_216)">
<path d="M-10.0068 41.903C-10.0068 50.9781 -2.65001 58.3349 6.42511 58.3349H53.8488C62.924 58.3349 70.2808 50.9781 70.2808 41.903C70.2808 32.8279 62.924 25.471 53.8488 25.471C53.044 25.471 52.2527 25.5289 51.4789 25.6407C51.7072 24.5493 51.8272 23.4181 51.8272 22.2588C51.8272 13.1837 44.4704 5.8269 35.3953 5.8269C27.7639 5.8269 21.3476 11.0292 19.4992 18.0808C18.1261 20.5442 14.0156 25.471 8.5585 25.471H6.42511C2.13471 25.471 -1.77163 27.1153 -4.69813 29.8081C-7.96181 32.8112 -10.0068 37.1182 -10.0068 41.903Z" fill="#D15842"/>
<path d="M80.3301 28.941C80.3301 34.9515 85.2026 39.8241 91.2132 39.8241H122.622C128.633 39.8241 133.506 34.9515 133.506 28.941C133.506 22.9304 128.633 18.0579 122.622 18.0579C122.089 18.0579 121.565 18.0962 121.053 18.1703C121.204 17.4474 121.284 16.6982 121.284 15.9304C121.284 9.91988 116.411 5.04736 110.4 5.04736C105.346 5.04736 101.096 8.4929 99.8723 13.1633C98.9629 14.7948 96.2404 18.0579 92.6261 18.0579H91.2132C88.3716 18.0579 85.7844 19.1469 83.8461 20.9304C81.6845 22.9194 80.3301 25.772 80.3301 28.941Z" fill="#D15842"/>
<circle cx="70.4155" cy="79.4047" r="14.5666" transform="rotate(-30 70.4155 79.4047)" fill="#D15842"/>
<circle cx="32.9243" cy="105.806" r="14.5666" transform="rotate(30 32.9243 105.806)" fill="#D15842"/>
<path fill-rule="evenodd" clip-rule="evenodd" d="M75.094 85.1625L75.7179 86.2432C75.8935 86.5472 75.9334 86.8594 75.8377 87.1797C75.7604 87.505 75.5697 87.7554 75.2657 87.9309C74.9734 88.0997 74.667 88.1362 74.3467 88.0405C74.0331 87.9565 73.7886 87.7625 73.613 87.4584L73.0444 86.4736C72.5281 86.7109 72.0219 86.8874 71.5259 87.003C70.7495 87.1706 69.9146 87.1692 69.0211 86.999C68.7948 86.9582 68.5935 86.8795 68.4171 86.7631C68.2408 86.6466 68.1053 86.5065 68.0108 86.3428C67.8555 86.0739 67.814 85.786 67.8863 85.4792C67.9636 85.1539 68.1484 84.9069 68.4408 84.7381C68.663 84.6098 68.9023 84.5652 69.1587 84.6043C69.8123 84.7102 70.4095 84.7318 70.9502 84.6691C71.2426 84.6324 71.5478 84.5533 71.8657 84.4319L69.8867 81.0043C69.3317 81.2036 68.8105 81.3405 68.323 81.4149C67.7288 81.4929 67.1835 81.4803 66.6873 81.377C66.1961 81.2552 65.7538 81.0428 65.3605 80.7397C64.9605 80.425 64.6154 80.0162 64.325 79.5133C63.8862 78.7532 63.7044 77.9928 63.7798 77.2321C63.8668 76.4647 64.1626 75.7482 64.6671 75.0827C64.9866 74.6613 65.3666 74.2799 65.8074 73.9386L65.4709 73.3557C65.2953 73.0517 65.2496 72.7429 65.3336 72.4293C65.4225 72.0973 65.619 71.8435 65.9231 71.668C66.2271 71.4925 66.5334 71.4559 66.8421 71.5584C67.1556 71.6424 67.4002 71.8364 67.5757 72.1405L67.9456 72.7812C68.276 72.6668 68.6079 72.5802 68.9416 72.5213C69.7247 72.3654 70.4222 72.3447 71.034 72.4592C71.5284 72.5324 71.8769 72.7444 72.0794 73.0952C72.228 73.3524 72.2636 73.6437 72.1863 73.969C72.1091 74.2942 71.9359 74.5345 71.667 74.6898C71.4916 74.7911 71.3033 74.8296 71.1022 74.8053C70.8206 74.7497 70.4814 74.7428 70.0847 74.7848C69.7834 74.8074 69.4817 74.8519 69.1796 74.9184L71.0487 78.1558C71.4014 78.054 71.7354 77.9708 72.0506 77.9063C72.6898 77.7711 73.2658 77.7426 73.7787 77.8207C74.2847 77.8871 74.747 78.0802 75.1655 78.3999C75.5772 78.7079 75.9552 79.1601 76.2995 79.7565C76.7384 80.5166 76.906 81.2929 76.8023 82.0856C76.6986 82.8783 76.3862 83.6199 75.8651 84.3106C75.6367 84.6171 75.3797 84.9011 75.094 85.1625ZM72.2869 80.3004L73.8789 83.0578C74.1305 82.731 74.3002 82.4038 74.388 82.0763C74.4751 81.7141 74.4343 81.3869 74.2655 81.0945C74.063 80.7437 73.7856 80.5063 73.4333 80.3822C73.1203 80.272 72.7381 80.2447 72.2869 80.3004ZM68.668 78.8933L66.9835 75.9756C66.85 76.0927 66.7321 76.2125 66.6297 76.3351C66.3648 76.6596 66.2089 76.9835 66.1617 77.3069C66.1146 77.6304 66.1754 77.9383 66.3442 78.2306C66.5468 78.5815 66.8149 78.8164 67.1488 78.9355C67.4875 79.0362 67.8904 79.0453 68.3573 78.9628C68.4575 78.9423 68.5611 78.9191 68.668 78.8933ZM30.2771 112.737L29.6531 113.818C29.4776 114.122 29.2272 114.312 28.9019 114.39C28.5816 114.485 28.2694 114.445 27.9654 114.27C27.673 114.101 27.4882 113.854 27.4109 113.529C27.3269 113.215 27.3727 112.906 27.5482 112.602L28.1168 111.618C27.6531 111.289 27.2472 110.939 26.8991 110.567C26.3657 109.979 25.9494 109.255 25.6501 108.396C25.5723 108.18 25.5398 107.966 25.5525 107.755C25.5651 107.544 25.6187 107.357 25.7132 107.193C25.8685 106.924 26.0971 106.744 26.399 106.653C26.7193 106.558 27.0256 106.594 27.318 106.763C27.5402 106.891 27.6984 107.076 27.7928 107.318C28.0279 107.937 28.3078 108.465 28.6324 108.902C28.8105 109.137 29.0315 109.361 29.2956 109.576L31.2745 106.148C30.8244 105.767 30.4453 105.384 30.137 104.999C29.7724 104.524 29.5107 104.045 29.3521 103.564C29.2119 103.078 29.1747 102.588 29.2405 102.096C29.3131 101.592 29.4946 101.089 29.7849 100.586C30.2237 99.8261 30.7914 99.2885 31.4878 98.9734C32.196 98.6651 32.9643 98.563 33.7929 98.6671C34.3176 98.7331 34.8379 98.8716 35.3539 99.0826L35.6904 98.4997C35.866 98.1957 36.1105 98.0017 36.4241 97.9176C36.7561 97.8287 37.0741 97.872 37.3782 98.0475C37.6822 98.223 37.867 98.4701 37.9326 98.7886C38.0166 99.1021 37.9708 99.4109 37.7953 99.715L37.4254 100.356C37.6896 100.585 37.9306 100.829 38.1484 101.088C38.675 101.689 39.0417 102.282 39.2484 102.869C39.4322 103.334 39.4229 103.742 39.2204 104.093C39.0718 104.35 38.8374 104.526 38.5171 104.622C38.1968 104.718 37.9021 104.688 37.6332 104.533C37.4578 104.431 37.3303 104.288 37.2507 104.101C37.1581 103.83 36.9945 103.533 36.7598 103.21C36.5895 102.96 36.4001 102.721 36.1914 102.493L34.3223 105.73C34.5869 105.985 34.8259 106.232 35.0394 106.473C35.4761 106.959 35.7888 107.444 35.9775 107.927C36.1731 108.398 36.237 108.895 36.1694 109.418C36.1085 109.928 35.9059 110.482 35.5616 111.078C35.1227 111.838 34.5341 112.371 33.7959 112.678C33.0576 112.985 32.2591 113.085 31.4003 112.979C31.0207 112.934 30.6463 112.854 30.2771 112.737ZM33.0841 107.875L31.4922 110.632C31.901 110.687 32.2692 110.67 32.5968 110.582C32.954 110.477 33.217 110.278 33.3858 109.986C33.5883 109.635 33.6552 109.276 33.5865 108.909C33.5255 108.582 33.358 108.238 33.0841 107.875ZM34.1778 101.12C34.0097 101.063 33.847 101.02 33.6896 100.993C33.2762 100.926 32.9177 100.953 32.614 101.074C32.3103 101.195 32.0741 101.401 31.9053 101.694C31.7028 102.044 31.6334 102.394 31.6971 102.743C31.7794 103.086 31.9729 103.44 32.2778 103.803C32.3457 103.88 32.4175 103.958 32.4933 104.037L34.1778 101.12Z" fill="#ED654C"/>
</g>
</g>
<defs>
<linearGradient id="paint0_linear_1070_216" x1="78.5035" y1="0.37207" x2="78.5035" y2="183.404" gradientUnits="userSpaceOnUse">
<stop stop-color="#70BDF0"/>
<stop offset="1" stop-color="#90C9EF"/>
</linearGradient>
<clipPath id="clip0_1070_216">
<rect width="157" height="183" fill="white"/>
</clipPath>
</defs>
</svg>
