<svg width="67" height="75" viewBox="0 0 67 75" fill="none" xmlns="http://www.w3.org/2000/svg">
<path d="M22.6983 15.6055L22.7909 15.4394L22.8391 15.2555C24.0002 10.8259 28.0324 7.55977 32.8237 7.55977C38.5239 7.55977 43.1447 12.1807 43.1447 17.8808C43.1447 18.611 43.0692 19.3218 42.9259 20.0065L42.487 22.1048L44.6086 21.7983C45.0945 21.7281 45.5921 21.6917 46.0991 21.6917C51.7992 21.6917 56.4201 26.3125 56.4201 32.0127C56.4201 37.7129 51.7992 42.3338 46.0991 42.3338H33.8494V43.8338H46.0991C52.6277 43.8338 57.9201 38.5413 57.9201 32.0127C57.9201 25.4841 52.6277 20.1917 46.0991 20.1917C46.0475 20.1917 45.996 20.192 45.9446 20.1926C45.4188 20.1994 44.9013 20.2404 44.3941 20.3137C44.4992 19.8114 44.5724 19.2974 44.6115 18.7739C44.6335 18.4791 44.6447 18.1813 44.6447 17.8808C44.6447 11.3522 39.3523 6.05977 32.8237 6.05977C27.3337 6.05977 22.7178 9.80227 21.3881 14.8752C20.4003 16.6473 17.4432 20.1917 13.5174 20.1917H11.9827C8.89619 20.1917 6.08599 21.3746 3.98068 23.3117C1.63281 25.4721 0.161621 28.5706 0.161621 32.0127C0.161621 38.5413 5.45409 43.8338 11.9827 43.8338H17.58V42.3338H11.9827C6.28252 42.3338 1.66162 37.7129 1.66162 32.0127C1.66162 29.0074 2.94419 26.3038 4.99635 24.4156C6.83568 22.7231 9.28702 21.6917 11.9827 21.6917H13.5174C15.9431 21.6917 17.9897 20.5984 19.5045 19.3588C21.0183 18.12 22.1219 16.6396 22.6983 15.6055Z" fill="#197BBD"/>
<path d="M18.7368 13.9125C18.9549 14.2903 19.0538 14.6987 19.0334 15.1375C19.0212 15.5717 18.8896 15.9981 18.6385 16.4168C18.3957 16.8308 18.0503 17.2 17.6023 17.5243L18.4061 18.9165C18.4678 19.0233 18.4806 19.1308 18.4446 19.2392C18.4216 19.3511 18.3567 19.4378 18.2499 19.4995C18.1431 19.5611 18.0314 19.5763 17.9148 19.5451C17.8112 19.5173 17.7285 19.4501 17.6669 19.3433L16.8702 17.9634C16.3338 18.2293 15.8034 18.3822 15.2789 18.4222C14.7544 18.4622 14.1901 18.4047 13.5859 18.2498C13.4399 18.2245 13.3337 18.1544 13.2673 18.0394C13.2104 17.9409 13.1952 17.8292 13.2217 17.7044C13.2564 17.5748 13.3231 17.4816 13.4216 17.4247C13.5202 17.3678 13.6343 17.3567 13.7638 17.3914C14.6992 17.6837 15.5947 17.6321 16.4506 17.2365L14.4589 13.7868C13.5493 13.9944 12.7872 14.0401 12.1726 13.9241C11.558 13.808 11.0539 13.4091 10.6604 12.7274C10.3142 12.1278 10.2426 11.5011 10.4455 10.8473C10.6437 10.1853 11.0853 9.61277 11.7701 9.12976L11.2224 8.1811C11.1608 8.07433 11.1438 7.96911 11.1716 7.86547C11.2028 7.74887 11.2719 7.65975 11.3786 7.5981C11.4854 7.53645 11.593 7.52362 11.7014 7.55961C11.8132 7.58264 11.9 7.64754 11.9616 7.75431L12.5022 8.69066C12.9613 8.48039 13.4271 8.34833 13.8998 8.29446C14.3724 8.2406 14.802 8.2828 15.1885 8.42107C15.3923 8.48957 15.5226 8.5731 15.5795 8.67166C15.6317 8.76201 15.6404 8.87196 15.6057 9.00152C15.5663 9.12286 15.4973 9.21198 15.3987 9.26889C15.3166 9.31631 15.2301 9.32787 15.1395 9.30357C14.8178 9.18266 14.4599 9.1319 14.0659 9.1513C13.6719 9.1707 13.293 9.26356 12.929 9.42987L14.8638 12.781C15.4631 12.643 15.9857 12.5713 16.4315 12.5658C16.8808 12.5473 17.303 12.6431 17.698 12.8531C18.0965 13.0501 18.4427 13.4032 18.7368 13.9125ZM11.41 12.2617C11.6471 12.6724 11.9764 12.9203 12.3979 13.0055C12.8277 13.0859 13.3558 13.0712 13.9823 12.9614L12.1898 9.85666C11.7302 10.1987 11.4284 10.5865 11.2845 11.02C11.1358 11.4453 11.1776 11.8592 11.41 12.2617ZM17.1827 16.7974C17.6293 16.4519 17.9287 16.06 18.0809 15.6217C18.2283 15.1752 18.1882 14.7549 17.9606 14.3606C17.7058 13.9382 17.3652 13.6804 16.939 13.587C16.508 13.4854 15.9727 13.4878 15.3333 13.5941L17.1827 16.7974Z" fill="#197BBD"/>
<path d="M24.7278 9.26606C24.6668 9.1512 24.6035 9.03698 24.5379 8.92344C21.5082 3.67586 14.7982 1.87791 9.55061 4.9076C4.30304 7.93729 2.50508 14.6473 5.53477 19.8949C5.8607 20.4594 6.22923 20.984 6.63394 21.467C6.18098 21.6972 5.74483 21.9558 5.32784 22.2403C4.92926 21.7449 4.56354 21.2127 4.23573 20.6449C0.791833 14.6799 2.8356 7.05246 8.80061 3.60856C14.7656 0.16466 22.3931 2.20842 25.837 8.17344C25.86 8.21338 25.8828 8.25341 25.9054 8.29351C25.492 8.59241 25.0986 8.9174 24.7278 9.26606Z" fill="#197BBD"/>
<path fill-rule="evenodd" clip-rule="evenodd" d="M57.4752 1.25141C57.6204 1.50895 57.6007 1.82772 57.425 2.06545C56.5743 3.21632 56.1649 4.63429 56.2714 6.06147C56.3778 7.48865 56.9929 8.83023 58.0049 9.8422C59.0169 10.8542 60.3585 11.4693 61.7856 11.5757C63.2128 11.6822 64.6308 11.2728 65.7817 10.4221C65.7817 10.4221 66.1624 10.2694 66.4999 10.5C66.8375 10.7306 66.9743 11.0943 66.9743 11.0943C66.81 12.8715 66.1431 14.5652 65.0514 15.9772C63.9597 17.3891 62.4884 18.461 60.8098 19.0674C59.1311 19.6737 57.3145 19.7894 55.5725 19.401C53.8305 19.0126 52.2351 18.136 50.9731 16.874C49.7111 15.612 48.8345 14.0166 48.4461 12.2746C48.0577 10.5326 48.1734 8.71596 48.7798 7.03732C49.3861 5.35868 50.458 3.88744 51.8699 2.79574C53.2819 1.70405 54.9756 1.03706 56.7528 0.872824C57.0472 0.84562 57.3301 0.993873 57.4752 1.25141ZM65.1858 12.4831C64.0873 12.9559 62.8833 13.1618 61.6741 13.0716C59.8886 12.9384 58.2103 12.1689 56.9442 10.9029C55.6782 9.63684 54.9087 7.95848 54.7755 6.17302C54.6853 4.96376 54.8912 3.75978 55.364 2.66132C54.4353 2.93786 53.5611 3.38429 52.7874 3.98242C51.6009 4.89984 50.7001 6.13623 50.1905 7.54691C49.681 8.95759 49.5837 10.4842 49.9102 11.9481C50.2366 13.4121 50.9732 14.7528 52.0338 15.8133C53.0943 16.8739 54.435 17.6105 55.899 17.9369C57.3629 18.2634 58.8895 18.1661 60.3002 17.6566C61.7109 17.147 62.9473 16.2463 63.8647 15.0597C64.4628 14.286 64.9092 13.4118 65.1858 12.4831Z" fill="#197BBD"/>
<path d="M26.2448 34.642C25.9519 34.3491 25.4771 34.3491 25.1842 34.642L20.4389 39.3873C20.146 39.6802 20.146 40.155 20.4389 40.4479C20.7318 40.7408 21.2067 40.7408 21.4996 40.4479L24.9648 36.9828V46.008C24.9648 46.4222 25.3005 46.758 25.7148 46.758C26.129 46.758 26.4648 46.4222 26.4648 46.008V36.9833L29.9294 40.4479C30.2223 40.7408 30.6972 40.7408 30.9901 40.4479C31.2829 40.155 31.2829 39.6802 30.9901 39.3873L26.2448 34.642Z" fill="#197BBD"/>
<path d="M38.4471 48.8676C38.3064 48.727 38.1156 48.6479 37.9167 48.6479C37.7178 48.6479 37.5271 48.727 37.3864 48.8676L32.6412 53.6128C32.3483 53.9057 32.3483 54.3806 32.6412 54.6735C32.9341 54.9664 33.4089 54.9664 33.7018 54.6735L37.1656 51.2097V59.2405C37.1656 59.6547 37.5014 59.9905 37.9156 59.9905C38.3299 59.9905 38.6656 59.6547 38.6656 59.2405V51.2075L42.1316 54.6735C42.4245 54.9664 42.8994 54.9664 43.1923 54.6735C43.4852 54.3806 43.4852 53.9057 43.1923 53.6128L38.4471 48.8676Z" fill="#197BBD"/>
<path fill-rule="evenodd" clip-rule="evenodd" d="M27.2087 58.3433L31.0228 62.1574C31.8452 62.9798 31.8452 64.3131 31.0228 65.1354L22.3947 73.7636C21.5723 74.5859 20.239 74.5859 19.4167 73.7636L13.6646 68.0115C12.8422 67.1891 12.8422 65.8558 13.6646 65.0335L22.2927 56.4053C23.1151 55.583 24.4484 55.583 25.2707 56.4053L27.1672 58.3018C27.1744 58.3084 27.1814 58.3152 27.1883 58.3222C27.1953 58.3291 27.202 58.3361 27.2087 58.3433ZM14.7252 66.9508C14.4887 66.7143 14.4887 66.3307 14.7252 66.0941L23.3534 57.466C23.5899 57.2294 23.9735 57.2294 24.2101 57.466L25.597 58.8529L16.1121 68.3377L14.7252 66.9508ZM17.1728 69.3984L20.4773 72.7029C20.7139 72.9395 21.0975 72.9395 21.334 72.7029L29.9622 64.0748C30.1987 63.8382 30.1987 63.4547 29.9622 63.2181L26.6576 59.9135L17.1728 69.3984Z" fill="#197BBD"/>
</svg>
